<?xml version="1.0" encoding="UTF-8"?>
<svg id="Layer_1" data-name="Layer 1" xmlns="http://www.w3.org/2000/svg" viewBox="0 0 712.86 277.96">
  <defs>
    <style>
      .cls-1 {
        fill: #706d6d;
      }

      .cls-1, .cls-2, .cls-3, .cls-4, .cls-5, .cls-6 {
        stroke-width: 0px;
      }

      .cls-2 {
        fill: #171717;
      }

      .cls-3 {
        fill: #010101;
      }

      .cls-4 {
        fill: #5a5757;
      }

      .cls-5 {
        fill: #2d2b2b;
      }

      .cls-6 {
        fill: #444242;
      }
    </style>
  </defs>
  <g id="title">
    <path id="path68465" class="cls-3" d="m54.72,2.01H0v273.93h34.65v-110.78h11.81c12.99,0,19.68,8.06,19.68,22.56v88.22h34.65v-81.78c0-23.36-14.17-41.49-35.04-45.92v-4.43c20.87-4.83,35.04-24.17,35.04-58.01v-36.66c0-27.39-19.29-47.13-46.06-47.13Zm-20.08,128.91V36.26h11.81c12.99,0,19.68,8.06,19.68,22.56v49.55c0,14.5-6.69,22.56-19.68,22.56h-11.81Z"/>
    <path id="path68467" class="cls-2" d="m149.91,195.78c0-10.88,7.87-16.11,18.9-16.11s18.9,5.24,18.9,16.11v27.8h-37.79v-27.8Zm-31.5,80.17h31.5v-22.16h37.79v22.16h31.5v-79.36c0-28.6-22.44-47.54-50.39-47.54s-50.39,18.93-50.39,47.54v79.36Zm0-194.57c0,28.6,22.44,47.54,50.39,47.54s50.39-18.93,50.39-47.54v-33.84c0-28.6-22.44-47.54-50.39-47.54s-50.39,18.93-50.39,47.54v33.84Zm31.5.81v-35.45c0-10.88,7.87-16.11,18.9-16.11s18.9,5.24,18.9,16.11v35.45c0,10.88-7.87,16.11-18.9,16.11s-18.9-5.24-18.9-16.11Z"/>
    <path id="path68469" class="cls-5" d="m287.22,36.66c9.05,0,15.75,7.65,15.75,16.92v170.8c0,9.27-6.69,16.92-15.75,16.92h-15.75V36.66h15.75Zm-50.39,239.29h50.39c27.95,0,50.39-22.96,50.39-51.56V53.58c0-28.6-22.44-51.56-50.39-51.56h-50.39v273.93Z"/>
    <path id="path68471" class="cls-6" d="m418.48,275.95h57.87v-34.24h-41.34c-3.15,0-5.91-2.82-5.91-6.04V2.01h-34.65v249.36c0,14.1,10.24,24.57,24.02,24.57Z"/>
    <path id="path68473" class="cls-4" d="m517.67,127.3h76.77v-30.21h-63.38c-3.15,0-5.91-2.82-5.91-6.04v-13.29h61.42v-26.18h-61.42v-18.93h69.29V2.42h-100.79v100.31c0,14.1,10.24,24.57,24.02,24.57Zm-24.02,148.65h31.5v-49.95l-7.87-26.99-1.18-2.82h3.54l40.16,79.76h34.65v-124.88h-31.5v49.95l7.87,26.99,1.18,2.82h-3.94l-39.76-79.76h-34.65v124.88Z"/>
    <path id="path68475" class="cls-1" d="m678.21,195.38v31.02c0,9.27-6.69,16.92-15.75,16.92s-15.75-7.65-15.75-16.92v-43.1h-34.65v43.1c0,28.6,22.44,51.56,50.39,51.56s50.39-22.96,50.39-51.56v-31.02c0-29-21.26-51.56-38.19-69.69-16.54-17.72-27.95-30.21-27.95-43.1v-31.02c0-9.27,6.69-16.92,15.75-16.92s15.75,7.65,15.75,16.92v43.1h34.65v-43.1C712.86,22.96,690.42,0,662.46,0s-50.39,22.96-50.39,51.56v31.02c0,27.39,20.47,49.15,37.4,67.27,16.54,17.72,28.74,31.02,28.74,45.52Z"/>
  </g>
</svg>