<svg xmlns="http://www.w3.org/2000/svg" id="Layer_1" data-name="Layer 1" viewBox="0 0 771.11 114.9"><defs><style>.cls-1{fill:#9ebdad}.cls-1,.cls-2,.cls-3{stroke-width:0}.cls-2{fill:#535a6a}.cls-3{fill:#788c8b}</style></defs><g id="title"><g id="path470767"><path d="m18.71,72.99v30.56c0,5.69-4.11,10.27-9.24,10.27S0,109.24,0,103.55v-30.56C0,50.22,17.11,31.67,38.1,31.67c10.38,0,19.96,4.45,26.92,12,3.54,4.08,3.54,10.27,0,14.35-3.76,3.84-9.47,3.84-13.23.12-3.42-3.96-8.44-6.19-13.69-6.19-10.61,0-19.39,9.4-19.39,21.03Z" class="cls-2"/></g><g id="path470769"><path d="m90.34,72.99c0-22.76,17.45-41.32,38.33-41.32s38.1,18.56,38.1,41.32-17.11,41.69-38.1,41.69-38.33-18.56-38.33-41.69Zm38.33,21.28c10.61,0,19.28-9.4,19.28-21.28s-8.67-21.03-19.28-21.03-19.62,9.4-19.62,21.03,8.9,21.28,19.62,21.28Z" class="cls-2"/></g><g id="path470771"><path d="m283.52,99.51l-18.55-43.91c-.04-.1-.1-.21-.14-.31-.1-.22-.2-.44-.3-.65-.19-.41-.38-.82-.59-1.23-.06-.12-.13-.24-.19-.36-3.57-6.92-8.91-12.61-15.32-16.38,0,0,0,0-.01,0-.5-.29-1.01-.58-1.53-.85-.06-.03-.12-.06-.18-.1-.47-.24-.94-.47-1.42-.7-.11-.05-.23-.11-.34-.16-.44-.2-.88-.38-1.32-.56-.16-.07-.33-.13-.49-.2-.18-.07-.36-.15-.55-.22-.09-.03-.18-.05-.27-.08-3.8-1.38-7.84-2.14-12.03-2.14-21.01,0-38.12,18.56-38.12,41.34s17.11,41.67,38.12,41.67c12.92,0,24.51-7.12,31.46-18.02l4.76,11.29c1.52,3.61,4.84,5.92,8.5,5.92,6.81,0,11.33-7.64,8.5-14.36h0Zm-53.22-5.18c-10.66,0-19.36-9.44-19.36-21.32s8.71-21,19.36-21c2.54,0,4.97.55,7.21,1.52.17.07.33.14.5.22.5.23.99.49,1.46.76.04.02.08.04.12.07,6.06,3.57,10.22,10.5,10.22,18.43,0,11.88-8.85,21.32-19.51,21.32Z" class="cls-2"/><path d="m283.52,99.51l-18.55-43.91c-.04-.1-.1-.21-.14-.31,2.39,5.38,3.75,11.39,3.75,17.73,0,8.8-2.53,16.94-6.81,23.65l4.76,11.29c1.52,3.61,4.84,5.92,8.5,5.92,6.81,0,11.33-7.64,8.5-14.36h0Z" class="cls-1"/><path d="m264.83,55.29c-.1-.22-.2-.44-.3-.65-.19-.41-.38-.82-.59-1.23-.06-.12-.13-.24-.19-.36-3.57-6.9-8.91-12.6-15.32-16.38,0,0,0,0-.01,0-.5-.3-1.01-.58-1.53-.85-.06-.03-.12-.06-.18-.1-.47-.24-.94-.47-1.42-.7-.11-.05-.23-.11-.34-.16-.44-.2-.88-.38-1.32-.56-.16-.07-.33-.13-.49-.2-.27-.1-.54-.2-.81-.3-5.95-2-12.03,2.93-12.03,9.75,0,4.37,2.59,8.2,6.4,9.63.27.1.54.24.81.35.17.07.33.14.5.22.5.23.98.49,1.46.76.04.02.08.04.12.07,3.64,2.12,6.64,5.42,8.42,9.48l13.75,32.6c4.28-6.71,6.81-14.84,6.81-23.65,0-6.34-1.35-12.35-3.75-17.73h0Z" class="cls-3"/></g><g id="path470773"><path d="m333.9,31.89c7.13,0,13.85,2.17,19.62,5.92V10.27c0-6.15,4.79-11,10.49-10.18,4.78.69,8.21,5.36,8.21,10.59v62.31s0,.06,0,.08c0,.04,0,.09,0,.13,0,23.13-17.45,41.69-38.33,41.69s-38.1-18.56-38.1-41.69,17.11-41.32,38.1-41.32h0Zm0,62.6c1.88,0,3.69-.3,5.42-.84.37-.2.74-.39,1.14-.54,7.05-2.67,12.31-9.69,12.99-18.25.02-.29.03-.59.04-.89.01-.29.03-.57.03-.86-.05-11.59-8.92-20.94-19.62-20.94s-19.28,9.4-19.28,21.03,8.67,21.28,19.28,21.28Z" class="cls-2"/><path d="m353.52,37.81V10.27c0-6.15,4.79-11,10.49-10.18,4.78.69,8.21,5.36,8.21,10.59v62.31s0,.06,0,.08c-.04-14.94-7.6-28.05-18.71-35.27Z" class="cls-1"/><path d="m346.06,112.6c-5.87,2.11-11.93-2.57-11.93-9.27v-.88c0-3.82,2.09-7.13,5.19-8.8,7.68-2.4,13.49-9.74,14.12-18.79.02-.29.03-.59.04-.89,0-.26.04-.51.04-.76,0-.03,0-.06,0-.09,0-.04,0-.08,0-.12v-35.19c11.1,7.22,18.66,20.33,18.71,35.27-.03,18.51-11.02,34.07-26.17,39.52h0Z" class="cls-3"/></g><g id="path470775"><path d="m445.85,103.55V10.27C445.85,4.58,450.07,0,455.32,0s9.24,4.58,9.24,10.27v93.28c.11,5.69-4.11,10.27-9.24,10.27s-9.47-4.58-9.47-10.27Z" class="cls-2"/></g><g id="path470777"><path d="m531.82,31.67c-20.84,0-38.27,18.53-38.27,41.26,0,5.68,4.22,10.25,9.45,10.25h57.41c5.24,0,9.45-4.57,9.45-10.25,0-22.73-17.09-41.26-38.04-41.26Zm0,20.26c7.24,0,13.57,4.39,16.85,10.87h-33.99c3.36-6.48,9.82-10.87,17.14-10.87Z" class="cls-2"/><path d="m553.32,89.72c-3.19-2.08-7.19-1.86-10.24.46-3.2,2.43-7.09,3.87-11.26,3.87h0c-4.17,0-8.06-1.43-11.26-3.87-3.05-2.32-7.05-2.55-10.24-.46-5.77,3.77-6.05,12.71-.56,16.94,6.27,4.82,13.9,7.65,22.05,7.65h0c8.16,0,15.79-2.84,22.06-7.65,5.5-4.22,5.22-13.17-.56-16.94h0Z" class="cls-2"/><path d="m551.07,72.93c0-3.68-.87-7.13-2.39-10.13h-33.99c-1.56,3-2.45,6.45-2.45,10.13,0,5.68-4.21,10.25-9.23,10.25h57.41c-5.13,0-9.34-4.57-9.34-10.25Z" class="cls-1"/><path d="m560.41,62.8h-11.73c1.52,3,2.39,6.45,2.39,10.13,0,5.68,4.21,10.25,9.34,10.25s9.45-4.57,9.45-10.25-4.22-10.13-9.45-10.13Z" class="cls-3"/><path d="m512.23,72.93c0-3.68.89-7.13,2.45-10.13h-11.68c-5.24,0-9.45,4.57-9.45,10.13s4.22,10.25,9.45,10.25,9.23-4.57,9.23-10.25Z" class="cls-3"/><path d="m553.32,89.72c-3.19-2.08-7.19-1.86-10.24.46-3.2,2.43-7.09,3.87-11.26,3.87h0c-4.17,0-8.06-1.43-11.26-3.87-3.05-2.32-7.05-2.55-10.24-.46-5.77,3.77-6.05,12.71-.56,16.94,6.27,4.82,13.9,7.65,22.05,7.65h0c8.16,0,15.79-2.84,22.06-7.65,5.5-4.22,5.22-13.17-.56-16.94h0Z" class="cls-1"/></g><g id="path470779"><path d="m595.66,103.55v-30.56c0-22.76,17.11-41.32,38.1-41.32s38.33,18.56,38.33,41.32v30.56c0,5.69-4.22,10.27-9.35,10.27s-9.47-4.58-9.47-10.27v-30.56c0-11.63-8.78-21.03-19.51-21.03s-19.39,9.4-19.39,21.03v30.56c0,5.69-4.11,10.27-9.24,10.27s-9.47-4.58-9.47-10.27Z" class="cls-2"/></g><g id="path470781"><path d="m705.97,93.52h10.15c1.71,0,3.08-1.24,3.54-2.85l10.15-41.2c2.74-10.52,10.72-17.07,20.53-17.07l11.29.12c5.25,0,9.35,4.45,9.47,10.14-.11,5.69-4.22,10.14-9.47,10.14h-10.15c-1.71,0-3.08,1.11-3.54,2.72l-10.15,41.2c-2.74,10.52-10.72,17.07-20.53,17.07l-11.29-.12c-5.25,0-9.35-4.45-9.47-10.14.11-5.69,4.22-10.02,9.47-10.02Z" class="cls-2"/></g></g></svg>